<svg width="14" height="14" viewBox="0 0 14 14" fill="none" xmlns="http://www.w3.org/2000/svg">
<path d="M12.5762 1.75014V7.98738C12.5428 8.13738 12.4725 8.26237 12.3353 8.34249C11.7887 8.66236 11.2013 8.84672 10.5668 8.87385C10.0282 8.89685 9.51133 8.78635 9.01085 8.59573C8.81498 8.52136 8.62987 8.41761 8.43287 8.34699C8.15789 8.24825 7.87727 8.1595 7.59541 8.08138C7.03293 7.92476 6.46583 7.89201 5.89185 8.02413C5.50661 8.11163 5.12782 8.22544 4.75815 8.36474C4.6864 8.39199 4.60328 8.40987 4.52791 8.40337C4.26154 8.38024 4.0913 8.183 4.09118 7.91039C4.09059 6.99192 4.09059 6.0735 4.09118 5.15512C4.09118 4.05142 4.09118 2.94767 4.09118 1.84388C4.09118 1.61173 4.19951 1.4534 4.41616 1.3689C4.47229 1.3469 4.52866 1.32628 4.58578 1.3064C5.10051 1.12379 5.62511 0.980168 6.16809 0.910671C6.26684 0.898172 6.36571 0.887422 6.46458 0.875798H6.87706C6.89082 0.880158 6.9049 0.883377 6.91919 0.885422C7.35792 0.914046 7.78478 1.00679 8.20113 1.14229C8.4615 1.22703 8.72249 1.31803 8.9686 1.43652C9.38984 1.63914 9.82269 1.79064 10.2918 1.81151C10.8517 1.83651 11.3705 1.68314 11.8574 1.41578C12.1561 1.25166 12.494 1.39803 12.5666 1.72826C12.569 1.73588 12.5722 1.74321 12.5762 1.75014Z" fill="#ED9C00"/>
<path d="M3.22649 0.875C3.24787 0.88225 3.26899 0.889749 3.29049 0.896499C3.38372 0.925106 3.46586 0.981789 3.52568 1.05881C3.5855 1.13584 3.62009 1.22944 3.62473 1.32686C3.62635 1.35811 3.62573 1.38935 3.62573 1.4206V12.1817H3.71685C5.08754 12.1817 6.45832 12.1817 7.82918 12.1817C8.04105 12.1817 8.20117 12.2647 8.29166 12.4589C8.41153 12.7155 8.27304 13.0188 8.00242 13.1028C7.98105 13.1094 7.96005 13.1175 7.93893 13.125H2.15154C2.14461 13.1208 2.13728 13.1173 2.12966 13.1146C1.8818 13.053 1.72593 12.8396 1.75305 12.5996C1.78018 12.3597 1.98067 12.1852 2.23503 12.1824C2.36003 12.1812 2.48502 12.1824 2.61002 12.1824C2.63189 12.1824 2.65364 12.18 2.67927 12.1785V1.42873C2.67927 1.3996 2.67927 1.37035 2.67989 1.34123C2.68977 1.11474 2.82926 0.943497 3.04888 0.887499C3.05839 0.884043 3.06762 0.879865 3.0765 0.875H3.22649Z" fill="#ED9C00"/>
</svg>
