<svg width="32" height="32" viewBox="0 0 32 32" fill="none" xmlns="http://www.w3.org/2000/svg">
<path d="M18.6667 5.33335C18.6667 5.45043 18.6591 5.56574 18.6445 5.67883C22.858 6.8801 24 10.9208 24 13.1111V21.3334H26.6667C27.4031 21.3334 28 21.9303 28 22.6667C28 23.4031 27.4031 24 26.6667 24H5.33333C4.59696 24 4 23.4031 4 22.6667C4 21.9303 4.59696 21.3334 5.33333 21.3334H8V13.1111C8 10.9208 9.14197 6.8801 13.3555 5.67883C13.3409 5.56574 13.3333 5.45043 13.3333 5.33335C13.3333 3.86059 14.5272 2.66669 16 2.66669C17.4728 2.66669 18.6667 3.86059 18.6667 5.33335Z" fill="#585858"/>
<path d="M18.6663 25.3333C18.6663 26.8061 17.4725 27.9999 15.9997 27.9999C14.5269 27.9999 13.333 26.8061 13.333 25.3333H18.6663Z" fill="#585858"/>
</svg>
