<svg width="14" height="14" viewBox="0 0 14 14" fill="none" xmlns="http://www.w3.org/2000/svg">
<path d="M9.0413 1.75006C7.59154 1.75006 6.4163 2.92548 6.4163 4.37506C6.4163 5.82464 7.59154 7.00006 9.0413 7.00006C10.4911 7.00006 11.6663 5.82464 11.6663 4.37506C11.6663 2.92548 10.4911 1.75006 9.0413 1.75006ZM9.0413 2.91673C9.84671 2.91673 10.4996 3.56948 10.4996 4.37506C10.4996 5.18064 9.84671 5.83339 9.0413 5.83339C8.23589 5.83339 7.58297 5.18064 7.58297 4.37506C7.58297 3.56948 8.23589 2.91673 9.0413 2.91673ZM7.03609 7.78406C5.9662 8.22564 5.24963 9.30773 5.24963 10.5001V11.6667C5.24963 11.9887 5.51079 12.2501 5.83297 12.2501H12.2496C12.5718 12.2501 12.833 11.9887 12.833 11.6667V10.5001C12.833 9.33573 12.1124 8.2799 11.0465 7.82023C10.8965 7.75548 10.7217 7.75373 10.5726 7.82023C10.0564 8.05182 9.55358 8.16673 9.0413 8.16673C8.53077 8.16673 8.02618 8.04539 7.49185 7.80215C7.34491 7.73506 7.18531 7.72222 7.03609 7.78406ZM7.26038 8.97757C7.81152 9.1864 8.47599 9.3334 9.0413 9.3334C9.60218 9.3334 10.2392 9.1963 10.7792 8.9968C11.3057 9.29663 11.6663 9.85781 11.6663 10.5001V11.0834H6.4163V10.5001C6.4163 9.82048 6.79891 9.24765 7.26038 8.97757Z" fill="#ED9C00"/>
<path d="M4.66663 2.33362C3.37798 2.33362 2.33329 3.37837 2.33329 4.66695C2.33329 5.95553 3.37798 7.00028 4.66663 7.00028C5.15044 7.00028 5.60871 6.8527 5.99733 6.58087C6.2614 6.39654 6.32773 6.02495 6.14316 5.7607C5.95859 5.49645 5.60515 5.44862 5.34108 5.63295C5.14688 5.76887 4.90941 5.83362 4.66663 5.83362C4.02228 5.83362 3.49996 5.31153 3.49996 4.66695C3.49996 4.02237 4.02228 3.50028 4.66663 3.50028C4.85691 3.50028 5.03098 3.54228 5.19524 3.62803C5.48108 3.77678 5.84869 3.67646 5.99733 3.39062C6.14602 3.10537 6.02795 2.73728 5.74218 2.58911C5.41253 2.41761 5.04544 2.33362 4.66663 2.33362ZM2.95308 7.78428C1.88319 8.22586 1.16663 9.30795 1.16663 10.5003V11.667C1.16663 11.989 1.42778 12.2503 1.74996 12.2503H4.08329C4.40547 12.2503 4.66663 11.989 4.66663 11.667C4.66663 11.345 4.40547 11.0836 4.08329 11.0836H2.33329V10.5003C2.33329 9.84462 2.7222 9.24263 3.16921 8.97779C3.58962 9.15513 4.03435 9.2893 4.42985 9.32255C4.75092 9.34996 5.04043 9.10787 5.06767 8.78646C5.09491 8.46562 4.86292 8.1938 4.54191 8.16638C4.28583 8.1448 4.00594 8.06778 3.68225 7.93011C3.60408 7.89686 3.5587 7.87062 3.40884 7.80237C3.2619 7.73528 3.1023 7.72245 2.95308 7.78428Z" fill="#ED9C00"/>
</svg>
