<svg width="14" height="14" viewBox="0 0 14 14" fill="none" xmlns="http://www.w3.org/2000/svg">
<path d="M12.5762 1.75013V7.98738C12.5429 8.13737 12.4725 8.26237 12.3354 8.34249C11.7888 8.66235 11.2013 8.84672 10.5668 8.87384C10.0282 8.89684 9.51135 8.78635 9.01087 8.59573C8.815 8.52136 8.62989 8.41761 8.4329 8.34699C8.15791 8.24824 7.87729 8.1595 7.59543 8.08137C7.03295 7.92476 6.46585 7.89201 5.89187 8.02413C5.50663 8.11163 5.12785 8.22543 4.75817 8.36474C4.68642 8.39199 4.6033 8.40986 4.52793 8.40336C4.26156 8.38024 4.09132 8.183 4.0912 7.91038C4.09061 6.99192 4.09061 6.0735 4.0912 5.15512C4.0912 4.05141 4.0912 2.94767 4.0912 1.84388C4.0912 1.61172 4.19953 1.45339 4.41618 1.3689C4.47231 1.3469 4.52868 1.32628 4.5858 1.3064C5.10053 1.12378 5.62513 0.980164 6.16811 0.910667C6.26686 0.898167 6.36573 0.887418 6.4646 0.875793H6.87708C6.89084 0.880154 6.90493 0.883373 6.91921 0.885418C7.35794 0.914042 7.7848 1.00679 8.20115 1.14228C8.46152 1.22703 8.72251 1.31803 8.96862 1.43652C9.38986 1.63914 9.82271 1.79063 10.2918 1.81151C10.8517 1.8365 11.3705 1.68314 11.8574 1.41577C12.1561 1.25165 12.494 1.39802 12.5666 1.72826C12.569 1.73587 12.5723 1.7432 12.5762 1.75013Z" fill="#ED9C00"/>
<path d="M3.22649 0.875C3.24787 0.88225 3.26899 0.889749 3.29049 0.896499C3.38372 0.925106 3.46586 0.981789 3.52568 1.05881C3.5855 1.13584 3.62009 1.22944 3.62473 1.32686C3.62635 1.35811 3.62573 1.38935 3.62573 1.4206V12.1817H3.71685C5.08754 12.1817 6.45832 12.1817 7.82918 12.1817C8.04105 12.1817 8.20117 12.2647 8.29166 12.4589C8.41153 12.7155 8.27304 13.0188 8.00242 13.1028C7.98105 13.1094 7.96005 13.1175 7.93893 13.125H2.15154C2.14461 13.1208 2.13728 13.1173 2.12966 13.1146C1.8818 13.053 1.72593 12.8396 1.75305 12.5996C1.78018 12.3597 1.98067 12.1852 2.23503 12.1824C2.36003 12.1812 2.48502 12.1824 2.61002 12.1824C2.63189 12.1824 2.65364 12.18 2.67927 12.1785V1.42873C2.67927 1.3996 2.67927 1.37035 2.67989 1.34123C2.68977 1.11474 2.82926 0.943497 3.04888 0.887499C3.05839 0.884043 3.06762 0.879865 3.0765 0.875H3.22649Z" fill="#ED9C00"/>
</svg>
