<svg width="14" height="14" viewBox="0 0 14 14" fill="none" xmlns="http://www.w3.org/2000/svg">
<path d="M9.04136 1.75003C7.5916 1.75003 6.41636 2.92545 6.41636 4.37503C6.41636 5.82461 7.5916 7.00003 9.04136 7.00003C10.4911 7.00003 11.6664 5.82461 11.6664 4.37503C11.6664 2.92545 10.4911 1.75003 9.04136 1.75003ZM9.04136 2.9167C9.84677 2.9167 10.4997 3.56945 10.4997 4.37503C10.4997 5.18061 9.84677 5.83336 9.04136 5.83336C8.23595 5.83336 7.58303 5.18061 7.58303 4.37503C7.58303 3.56945 8.23595 2.9167 9.04136 2.9167ZM7.03615 7.78403C5.96626 8.22561 5.24969 9.3077 5.24969 10.5V11.6667C5.24969 11.9887 5.51085 12.25 5.83303 12.25H12.2497C12.5719 12.25 12.833 11.9887 12.833 11.6667V10.5C12.833 9.3357 12.1125 8.27987 11.0466 7.8202C10.8965 7.75545 10.7217 7.7537 10.5726 7.8202C10.0565 8.05178 9.55364 8.1667 9.04136 8.1667C8.53083 8.1667 8.02624 8.04536 7.49191 7.80211C7.34497 7.73503 7.18537 7.72219 7.03615 7.78403ZM7.26044 8.97754C7.81158 9.18637 8.47605 9.33336 9.04136 9.33336C9.60224 9.33336 10.2392 9.19627 10.7792 8.99677C11.3057 9.2966 11.6664 9.85778 11.6664 10.5V11.0834H6.41636V10.5C6.41636 9.82045 6.79897 9.24762 7.26044 8.97754Z" fill="#ED9C00"/>
<path d="M4.66669 2.33362C3.37805 2.33362 2.33335 3.37837 2.33335 4.66695C2.33335 5.95553 3.37805 7.00028 4.66669 7.00028C5.1505 7.00028 5.60877 6.8527 5.99739 6.58087C6.26146 6.39654 6.32779 6.02495 6.14322 5.7607C5.95865 5.49645 5.60521 5.44862 5.34114 5.63295C5.14695 5.76887 4.90947 5.83362 4.66669 5.83362C4.02234 5.83362 3.50002 5.31153 3.50002 4.66695C3.50002 4.02237 4.02234 3.50028 4.66669 3.50028C4.85697 3.50028 5.03104 3.54228 5.1953 3.62803C5.48114 3.77678 5.84875 3.67646 5.99739 3.39062C6.14608 3.10537 6.02801 2.73728 5.74224 2.58911C5.4126 2.41761 5.0455 2.33362 4.66669 2.33362ZM2.95315 7.78428C1.88325 8.22586 1.16669 9.30795 1.16669 10.5003V11.667C1.16669 11.989 1.42785 12.2503 1.75002 12.2503H4.08335C4.40553 12.2503 4.66669 11.989 4.66669 11.667C4.66669 11.345 4.40553 11.0836 4.08335 11.0836H2.33335V10.5003C2.33335 9.84462 2.72226 9.24263 3.16927 8.97779C3.58968 9.15513 4.03441 9.2893 4.42991 9.32255C4.75098 9.34996 5.04049 9.10787 5.06773 8.78646C5.09497 8.46562 4.86298 8.1938 4.54197 8.16638C4.28589 8.1448 4.006 8.06778 3.68231 7.93011C3.60415 7.89686 3.55876 7.87062 3.4089 7.80237C3.26196 7.73528 3.10236 7.72245 2.95315 7.78428Z" fill="#ED9C00"/>
</svg>
